Coordinates
version=1
nRows=54
nColumns=12
inDegrees=yes

Units are S.I. units (second, meters, Newtons, ...)
Angles are in degrees

endheader
time	SC_y	SC_z	SC_x	AC_y	AC_z	AC_x	GH_y	GH_z	GH_yy	EL_x	PS_y
       0.0              -44.06          3.209          57.49          34.89         -9.045          1.281         -81.33         -2.025          56.07          93.87          96.25
   0.03102              -44.06          3.214          57.48          34.89         -9.043          1.283         -81.34         -2.018          56.07          93.86          96.24
   0.06205              -44.06          3.219          57.48          34.89          -9.04          1.285         -81.35         -2.011          56.08          93.85          96.23
   0.09307              -44.06          3.224          57.48          34.89         -9.036          1.288         -81.36         -2.004          56.09          93.83          96.22
    0.1241              -44.05           3.23          57.48          34.89         -9.033           1.29         -81.37         -1.996           56.1          93.82          96.21
    0.1551              -44.05          3.236          57.48          34.89          -9.03          1.292         -81.38         -1.987          56.11           93.8           96.2
    0.1861              -44.05          3.243          57.48          34.89         -9.026          1.295          -81.4         -1.978          56.12          93.79          96.18
    0.2172              -44.05           3.25          57.48          34.89         -9.022          1.298         -81.41         -1.968          56.13          93.77          96.17
    0.2482              -44.04          3.258          57.48          34.89         -9.017          1.301         -81.43         -1.958          56.14          93.75          96.15
    0.2792              -44.04          3.266          57.48          34.89         -9.013          1.304         -81.45         -1.947          56.15          93.73          96.14
    0.3102              -44.04          3.275          57.48          34.89         -9.008          1.308         -81.47         -1.935          56.16          93.71          96.12
    0.3413              -44.03          3.284          57.48          34.89         -9.002          1.312         -81.49         -1.922          56.18          93.69           96.1
    0.3723              -44.03          3.294          57.47          34.89         -8.996          1.316         -81.51         -1.908          56.19          93.66          96.08
    0.4033              -44.03          3.305          57.47          34.88          -8.99           1.32         -81.53         -1.893          56.21          93.64          96.06
    0.4343              -44.02          3.317          57.47          34.88         -8.983          1.325         -81.56         -1.877          56.23          93.61          96.03
    0.4653              -44.02           3.33          57.47          34.88         -8.976           1.33         -81.59          -1.86          56.25          93.57          96.01
    0.4964              -44.01          3.344          57.47          34.88         -8.968          1.336         -81.62          -1.84          56.27          93.54          95.98
    0.5274              -44.01          3.359          57.47          34.88         -8.959          1.342         -81.65          -1.82          56.29           93.5          95.95
    0.5584               -44.0          3.376          57.46          34.88          -8.95          1.349         -81.69         -1.797          56.32          93.46          95.91
    0.5894              -43.99          3.394          57.46          34.87         -8.939          1.356         -81.73         -1.772          56.34          93.42          95.87
    0.6205              -43.99          3.414          57.46          34.87         -8.928          1.364         -81.77         -1.745          56.37          93.37          95.83
    0.6515              -43.98          3.436          57.46          34.87         -8.915          1.373         -81.82         -1.715           56.4          93.31          95.79
    0.6825              -43.97           3.46          57.45          34.87         -8.901          1.383         -81.87         -1.682          56.44          93.25          95.74
    0.7135              -43.96          3.487          57.45          34.87         -8.886          1.394         -81.93         -1.645          56.48          93.19          95.68
    0.7445              -43.95          3.517          57.44          34.86         -8.869          1.406         -81.99         -1.604          56.53          93.11          95.62
    0.7756              -43.93           3.55          57.44          34.86          -8.85           1.42         -82.06         -1.558          56.58          93.03          95.55
    0.8066              -43.92          3.588          57.43          34.85         -8.828          1.435         -82.14         -1.507          56.63          92.94          95.48
    0.8376               -43.9           3.63          57.43          34.85         -8.804          1.452         -82.24          -1.45          56.69          92.84          95.39
    0.8686              -43.88          3.678          57.42          34.85         -8.777          1.471         -82.34         -1.385          56.77          92.72          95.29
    0.8997              -43.86          3.732          57.42          34.84         -8.746          1.493         -82.45         -1.311          56.85          92.59          95.18
    0.9307              -43.84          3.793          57.41          34.83         -8.711          1.518         -82.59         -1.227          56.94          92.43          95.05
    0.9617              -43.81          3.864           57.4          34.83          -8.67          1.547         -82.74          -1.13          57.04          92.26          94.91
    0.9927              -43.78          3.946          57.39          34.82         -8.623           1.58         -82.92         -1.019          57.17          92.06          94.74
     1.024              -43.75          4.041          57.37          34.81         -8.569          1.619         -83.12        -0.8891          57.31          91.83          94.54
     1.055               -43.7          4.152          57.36           34.8         -8.505          1.664         -83.36        -0.7374          57.47          91.55          94.32
     1.086              -43.66          4.283          57.34          34.78         -8.431          1.717         -83.64        -0.5587          57.67          91.23          94.05
     1.117               -43.6          4.438          57.32          34.77         -8.341           1.78         -83.98        -0.3463           57.9          90.85          93.73
     1.148              -43.53          4.625           57.3          34.75         -8.235          1.855         -84.38       -0.09166          58.18          90.39          93.34
     1.179              -43.44           4.85          57.26          34.72         -8.105          1.947         -84.87         0.2164          58.51          89.83          92.88
      1.21              -43.34          5.126          57.23          34.69         -7.948          2.058         -85.47         0.5927          58.93          89.15          92.31
     1.241              -43.21          5.466          57.18          34.66         -7.753          2.196          -86.2          1.057          59.43          88.32          91.61
     1.272              -43.04           5.89          57.12          34.61          -7.51          2.368         -87.12          1.636          60.07          87.27          90.74
     1.303              -42.84          6.424          57.05          34.56         -7.204          2.585         -88.27          2.366          60.86          85.96          89.64
     1.334              -42.58          7.103          56.96          34.49         -6.815           2.86         -89.74          3.293          61.88          84.29          88.24
     1.365              -42.25          7.973          56.84           34.4         -6.317          3.213         -91.62           4.48          63.17          82.15          86.46
     1.396              -41.83          9.088          56.69          34.28         -5.678          3.665         -94.03          6.004          64.84           79.4          84.16
     1.427              -41.29          10.51           56.5          34.13         -4.862          4.243         -97.11           7.95          66.96          75.89          81.23
     1.458              -40.61          12.31          56.26          33.94         -3.836          4.969         -101.0           10.4          69.63          71.48          77.54
     1.489              -39.78          14.49          55.97          33.72         -2.586          5.855         -105.7          13.38          72.89          66.11          73.05
      1.52              -38.82          17.02          55.63          33.45         -1.137          6.881         -111.2          16.83          76.67          59.88          67.85
     1.551              -37.78          19.76          55.26          33.17         0.4327          7.992         -117.1          20.58          80.75          53.13          62.21
     1.582              -36.74           22.5          54.89          32.88          2.002          9.103         -123.0          24.32          84.84          46.39          56.57
     1.613              -35.78          25.03          54.55          32.61          3.451          10.13         -128.5          27.77          88.62          40.16          51.37
     1.644              -34.95          27.22          54.26          32.39          4.702          11.01         -133.2          30.76          91.88          34.78          46.87
